<svg xmlns="http://www.w3.org/2000/svg" viewBox="0 0 68.75 32.22656"><title>565_1</title><g id="Layer_2" data-name="Layer 2"><g id="Layer_1-2" data-name="Layer 1"><path d="M0,0V32.22656H68.75V0ZM4.23027,28.30566V3.9209H21.667V28.30566Zm21.42637,0V3.9209H43.09336V28.30566ZM47.083,21.86035v-4.6041h2.57813V14.97031H47.083v-4.5998h2.57813V8.08457H47.083V3.91875h5.95977l-.67891,4.993.36953-.05586a13.53522,13.53522,0,0,1,2.05176-.13105c1.8498,0,4.0541.42969,4.0541,2.50723a2.677,2.677,0,0,1-2.90266,2.43038q-.06024-.00534-.12019-.01339a7.66564,7.66564,0,0,1-3.22266-.73691l-.31152-.16113-.73906,2.63613.19121.10312a9.30918,9.30918,0,0,0,4.168.89375c3.734,0,6.44531-2.25156,6.44531-5.35391A4.44082,4.44082,0,0,0,60.2293,7.077a7.28106,7.28106,0,0,0-3.85645-.99258,6.25466,6.25466,0,0,0-.77129.03008l.333-2.19355h8.59375V28.30566H55.40391a5.41836,5.41836,0,0,1,4.10352-2.20859,11.78852,11.78852,0,0,1,1.4416-.0666h.28145l-.03008-2.692-.26-.01719a8.85366,8.85366,0,0,0-1.50391.04512,9.25762,9.25762,0,0,0-5.58594,2.243,8.05448,8.05448,0,0,0-1.90351,2.69414H47.083V24.142h2.57813V21.85606H47.083ZM16.36035,14.55566a7.28321,7.28321,0,0,0-3.86719-.99258,6.25474,6.25474,0,0,0-.77129.03008l.35664-2.36328H17.976v-2.851H9.57773L8.48848,16.37969l.36953-.05156a13.51362,13.51362,0,0,1,2.04316-.1332c1.8498,0,4.0541.42969,4.0541,2.50723a2.677,2.677,0,0,1-2.90459,2.42807q-.05927-.0053-.11826-.01322a7.66562,7.66562,0,0,1-3.22266-.73477l-.30723-.16113-.73477,2.634.19121.10313a9.30487,9.30487,0,0,0,4.17227.88945c3.734,0,6.44531-2.25156,6.44531-5.35391a4.44082,4.44082,0,0,0-2.12481-3.951Zm18.44434-1.16875a4.96933,4.96933,0,0,0-2.99277.93242A5.109,5.109,0,0,1,36.459,11.058a11.79694,11.79694,0,0,1,1.4416-.0666h.28359l-.02793-2.692-.25781-.01719a8.8709,8.8709,0,0,0-1.50391.04512,9.25977,9.25977,0,0,0-5.58594,2.243,9.05781,9.05781,0,0,0-2.735,6.79121,5.92968,5.92968,0,0,0,6.01563,6.5957A5.457,5.457,0,0,0,39.74273,18.704q.00472-.12869.00337-.25749a4.78672,4.78672,0,0,0-4.50316-5.05439Q35.024,13.37947,34.80469,13.38691Zm-3.141,3.93594a2.51582,2.51582,0,0,1,2.23223-1.36211,2.3332,2.3332,0,0,1,2.36328,2.64473,2.36328,2.36328,0,0,1-1.959,2.7079q-.11021.01769-.22171.02491a2.851,2.851,0,0,1-2.5977-3.08352q.00726-.08488.01958-.16922A1.60274,1.60274,0,0,1,31.66367,17.32285Z" fill="#333"/></g></g></svg>